PathFileType	4	(X/Y/Z)	pose_F01_0-93.trc
DataRate	CameraRate	NumFrames	NumMarkers	Units	OrigDataRate	OrigDataStartFrame	OrigNumFrames
30	30	10	21	m	30	74	93
Frame#	Time	CHip			RHip			RKnee			RAnkle			RBigToe			RSmallToe			RHeel			LHip			LKnee			LAnkle			LBigToe			LSmallToe			LHeel			Neck			Nose			RShoulder			RElbow			RWrist			LShoulder			LElbow			LWrist			
		X1	Y1	Z1	X2	Y2	Z2	X3	Y3	Z3	X4	Y4	Z4	X5	Y5	Z5	X6	Y6	Z6	X7	Y7	Z7	X8	Y8	Z8	X9	Y9	Z9	X10	Y10	Z10	X11	Y11	Z11	X12	Y12	Z12	X13	Y13	Z13	X14	Y14	Z14	X15	Y15	Z15	X16	Y16	Z16	X17	Y17	Z17	X18	Y18	Z18	X19	Y19	Z19	X20	Y20	Z20	X21	Y21	Z21	
74	2.466666666666667	-0.27345155569326024	1.8372379019296234	-0.5786182898623374	-0.28624088402532927	1.8343716869187976	-0.5215902418901972																-0.2574888093685216	1.838666237822314	-0.6378245328728653																-0.2740838466518275	1.992904161228143	-0.6115183309322123	-0.26348916633410213	2.056138307388584	-0.5926346964412118	-0.29441295086115843	1.9894380681931407	-0.5268317795135508	-0.3031495092926491	1.9069476504825396	-0.4771438075338753	-0.3070798925343023	1.8296212631967899	-0.44139905752784286	-0.24538404053593507	1.9978902896570436	-0.6943852619553966	-1.2422948258673523	1.8317215052754618	0.28606320871162094	-0.2333923556753075	1.9074437886183524	-0.615514618523181
75	2.5	-0.27265516214178426	1.8387383581598142	-0.5755510011970245	-0.28735079036518946	1.8358000095247136	-0.5164170582347993																-0.2577659893597379	1.8415588042145956	-0.6378738677744792																-0.2740853633600871	1.9928739009024454	-0.6115306885797135	-0.2614940154851817	2.056137741573172	-0.5946065927509496	-0.2944991677773615	1.988387182425896	-0.5268124092795503	-0.30421624738289244	1.9063621965790365	-0.48025802318443217	-0.30723921385701103	1.831260822485613	-0.4417521076954845	-0.24638138737210735	1.9967483226093534	-0.6973774452916212	-1.2249083740709679	1.827687773538081	0.2585270917154344	-0.22822246754515652	1.9025761098711	-0.6163084788881078
76	2.533333333333333	-0.27157666202507436	1.8361682100482735	-0.5805764891579909	-0.28534660537175316	1.833242390077775	-0.5184312930419163																-0.2555513976177516	1.838332968570013	-0.6398473058545553																-0.27213580403275317	1.992812781231542	-0.6137169188761151	-0.2613274916446394	2.0572095818188276	-0.5944961759433628	-0.29541619636215277	1.9893705403860016	-0.5298846249127358	-0.3039747961520067	1.9080854381567247	-0.4806148379528354	-0.3033671200458628	1.8292547912656716	-0.4455682735151497	-0.24631561703330432	1.9967338530102188	-0.69757943375114	-1.2300732912150807	1.8284822098044036	0.2630891829061086	-0.22878524558301758	1.9024118508076162	-0.6281163986620486
77	2.566666666666667	-0.2714315063996061	1.8374061833531612	-0.5810077205800117	-0.28443500416982537	1.8335654664625998	-0.5237982756458525																-0.2534021383500873	1.8403346330493815	-0.6423251597371753																-0.2720823615220611	1.9929251141617361	-0.6136112281658341	-0.2613922366564484	2.056082918755622	-0.5946084709548195	-0.2944887910956382	1.9882005188567116	-0.5267478298854295	-0.30218710893244294	1.9059537689452013	-0.4824311409051551	-0.30239335776237364	1.8282248503770093	-0.4423173895564804	-0.247136240558997	1.9956708494370428	-0.7002028243123888	-1.2247359024661024	1.825763437247692	0.25226226434869875	-0.2268079550323015	1.9012704339815885	-0.6215950463833286
78	2.6	-0.2690059263308793	1.8392937766181963	-0.5836530084154391	-0.2834607776868947	1.8324100922299693	-0.5248116875977342																-0.2538393934326635	1.8419590642221018	-0.6459217620830686																-0.27207300024101005	1.9928581938862326	-0.613665932142315	-0.26136839791657085	2.0560035210139853	-0.594667525023136	-0.294465273342324	1.9881277268876834	-0.5268134207498443	-0.3020105400698909	1.9071360895746308	-0.48253958182586276	-0.30039720879770626	1.831164604020443	-0.4447558509719893	-0.2471236947469165	1.995623883740618	-0.700266443926791	-1.2247113353367682	1.825780834015929	0.2520654257424736	-0.2312169890350363	1.9000014730983668	-0.6171044197461613
79	2.6333333333333333	-0.2705050527219711	1.8331750760038519	-0.5860036450453195	-0.2824865512039641	1.8312547179973389	-0.525825099549616																-0.25332469481943504	1.8364018857343989	-0.6503243129949432																-0.27203873687476715	1.9929764332694806	-0.6135719116064026	-0.2594031949089674	2.056053244490071	-0.5967180499748532	-0.2934655704032556	1.9881569764830542	-0.5237377326632657	-0.30213250938188746	1.9061199866790113	-0.48254785342531825	-0.29873628919686634	1.8281148188235823	-0.44657830779430663	-0.24503602700337576	1.9956811804911465	-0.7023594683179195	-1.2189453796246625	1.8246408482435184	0.2417028422790496	-0.22900760375330598	1.9001097919113021	-0.6193860937324375
80	2.6666666666666665	-0.2687769972604382	1.8365347936099938	-0.5920666985118306	-0.2829844831331993	1.8333176069781612	-0.5294605140392026																-0.2523993975433994	1.8383170107712097	-0.6533661029819873																-0.27090757210782024	1.9929285172115707	-0.6103039028246752	-0.258356641538463	2.057114236500118	-0.5937461026006231	-0.2933528723701187	1.9882914936092217	-0.5236515010176075	-0.29894807151662517	1.905241350292548	-0.4813468334221247	-0.2994706565522387	1.8312726191234976	-0.4502383019646676	-0.24570868845633728	1.997185244982259	-0.7053381023371889	-1.2192170987295905	1.8216762041511663	0.2415857812518083	-0.23406198873338685	1.8988937373923778	-0.6265357529758075
81	2.7	-0.2672867874209451	1.8362609247674389	-0.5957728756613834	-0.2808476933458797	1.8349176974631427	-0.5317782773667958																-0.2514741002673638	1.8402321358080205	-0.6564078929690312																-0.27189599232682454	1.9917551362012968	-0.6133373371322053	-0.2583567343964173	2.0583673554175457	-0.5941409160306711	-0.29334224992377766	1.988249186619953	-0.5236942610665744	-0.2998169316580459	1.9037575968250242	-0.4841759699101554	-0.29735164751187204	1.8293245836125722	-0.452379236426033	-0.2436160617953462	1.9951392363805345	-0.7073139428035392	-1.216321321582299	1.8208565776128578	0.23401735310387348	-0.2303415225598178	1.904364540156661	-0.6343652500597297
82	2.7333333333333334	-0.265796577581452	1.8359870559248836	-0.5994790528109362	-0.2809917737949739	1.8337184126366997	-0.5317823421103338																-0.2525368379108335	1.8387238641123207	-0.6595181283587116																-0.2699063264958173	1.9916402620038427	-0.6155360206493364	-0.2583325720256414	2.0583617058463433	-0.5941928727368868	-0.29136945620132165	1.9883609371259099	-0.5258295625734474	-0.2980620821753246	1.9038154673034131	-0.48658790023133486	-0.29837522675068806	1.8313322115024349	-0.4559332885119428	-0.2443583596837581	1.9962976030588595	-0.7102891814428098	-1.2161932435208123	1.8203658825181661	0.23378333654805017	-0.22279432404062602	1.9069094296080775	-0.646775130948097
83	2.7666666666666666	-0.2659398841607609	1.8381185820696815	-0.5995734907525558	-0.28117696042472434	1.8330880530301943	-0.5316261713371654																-0.2527348732496214	1.837965579160908	-0.6593094205667772																-0.26770749927486015	1.992536987038817	-0.6178269330445052	-0.2583040592564832	2.058286901047546	-0.5941991219499273	-0.29116269759301483	1.9895194601716477	-0.5259253423492324	-0.29588673318258196	1.9050690159710255	-0.48884956072440133	-0.2997491041583568	1.8293201117530773	-0.45878837487941904	-0.24224132853615413	1.997364007595489	-0.7130002940452235	-1.2128199327415077	1.8207562454741402	0.2251127691846528	-0.22566822467197747	1.905689015735925	-0.6476443705870398
